<?xml version="1.0" standalone="no"?>
<!DOCTYPE svg PUBLIC "-//W3C//DTD SVG 20010904//EN"
 "http://www.w3.org/TR/2001/REC-SVG-20010904/DTD/svg10.dtd">
<svg version="1.0" xmlns="http://www.w3.org/2000/svg"
 width="75.000000pt" height="74.000000pt" viewBox="0 0 75.000000 74.000000"
 preserveAspectRatio="xMidYMid meet">

<g transform="translate(0.000000,74.000000) scale(0.100000,-0.100000)"
fill="#000000" stroke="none">
<path d="M291 725 c-1 -17 -3 -17 -11 -5 -8 12 -10 9 -10 -12 0 -15 4 -29 9
-33 15 -9 30 27 20 50 l-8 20 0 -20z"/>
<path d="M337 729 c7 -7 15 -10 18 -7 3 3 -2 9 -12 12 -14 6 -15 5 -6 -5z"/>
<path d="M487 731 c23 -4 48 -13 57 -20 13 -11 19 -11 33 0 12 10 15 11 9 1
-14 -23 -25 -73 -15 -67 5 4 9 13 9 21 0 21 23 17 43 -7 14 -16 21 -18 32 -9
11 9 12 7 8 -9 -7 -26 -33 -36 -34 -13 0 10 -3 12 -6 5 -7 -20 -21 -15 -25 7
l-3 21 -13 -21 c-8 -14 -9 -19 -1 -18 6 2 14 -3 16 -9 3 -7 0 -13 -6 -13 -6 0
-8 -6 -5 -14 3 -8 1 -17 -4 -20 -16 -9 -2 -48 15 -42 8 3 12 2 8 -3 -10 -17
20 -18 33 -2 12 14 13 14 8 -1 -4 -12 -1 -15 11 -11 11 4 14 2 9 -5 -5 -8 -1
-10 10 -5 10 4 15 2 11 -3 -3 -6 8 -8 29 -6 31 4 34 7 34 39 0 26 -5 36 -20
40 -11 3 -20 9 -20 14 0 5 9 9 20 9 11 0 20 6 20 14 0 9 -7 13 -18 11 -10 -2
-25 1 -33 6 -11 7 -8 9 9 9 13 0 20 4 17 10 -3 5 0 7 9 4 12 -5 14 4 13 43 -2
38 -6 48 -21 51 -14 3 -17 0 -13 -12 4 -10 -5 -23 -25 -38 -18 -12 -28 -17
-24 -10 4 7 -2 10 -18 9 -14 -1 -25 1 -26 6 -1 30 1 37 10 32 8 -5 7 -12 -2
-23 -8 -11 -5 -10 10 3 20 17 26 17 45 6 22 -14 22 -14 3 8 -18 19 -28 21
-130 20 -77 -1 -98 -4 -69 -8z m120 -166 c0 -8 -7 -15 -15 -15 -12 0 -12 3 -2
15 7 8 13 15 15 15 1 0 2 -7 2 -15z m120 -61 c-3 -3 -12 -4 -19 -1 -8 3 -5 6
6 6 11 1 17 -2 13 -5z"/>
<path d="M399 703 c-1 -5 -1 -11 0 -15 0 -4 -8 -12 -19 -18 -27 -14 -25 -26 8
-55 l27 -24 -28 -1 c-24 0 -28 -4 -25 -25 2 -15 -4 -30 -17 -39 -20 -15 -20
-15 1 -10 11 3 28 19 38 35 9 16 21 29 26 29 19 0 21 -22 3 -42 -10 -12 -12
-18 -4 -13 10 6 12 2 6 -14 -6 -19 -3 -20 27 -15 72 12 77 14 72 29 -4 10 3
18 20 25 22 8 26 16 26 51 0 35 -3 40 -17 35 -16 -5 -16 -5 0 8 30 23 7 54
-34 48 -22 -3 -30 -1 -25 7 9 14 -9 14 -34 1 -13 -7 -21 -7 -25 0 -7 12 -24
13 -26 3z m91 -131 c0 -28 -25 -56 -43 -49 -17 6 -14 29 6 55 14 18 37 15 37
-6z"/>
<path d="M460 560 c0 -19 3 -21 12 -12 9 9 9 15 0 24 -9 9 -12 7 -12 -12z"/>
<path d="M135 680 c-3 -6 1 -7 9 -4 18 7 21 14 7 14 -6 0 -13 -4 -16 -10z"/>
<path d="M145 651 c-2 -5 3 -15 12 -22 9 -8 14 -9 10 -2 -4 6 -2 13 5 15 8 3
6 7 -5 11 -9 3 -19 2 -22 -2z"/>
<path d="M334 626 c-3 -9 -11 -13 -18 -9 -6 3 -8 2 -3 -2 11 -13 45 -16 51 -6
3 5 -1 14 -9 21 -12 10 -16 9 -21 -4z"/>
<path d="M90 625 c5 -22 -1 -35 -12 -32 -7 1 -13 -6 -13 -16 0 -10 -8 -23 -18
-29 -14 -7 -17 -17 -13 -34 5 -19 2 -26 -15 -32 -15 -6 -4 -8 35 -9 61 -1 79
-8 56 -24 -11 -8 -8 -9 10 -3 14 3 30 11 37 16 7 5 14 5 18 -2 3 -5 11 -10 16
-10 6 0 7 5 3 11 -4 7 2 9 17 7 21 -3 24 1 26 37 1 22 0 35 -3 29 -3 -7 -14
-10 -24 -7 -11 3 -17 9 -14 14 2 5 -11 15 -31 23 -19 8 -35 17 -35 20 0 7 23
1 47 -12 12 -6 23 -9 26 -4 2 4 2 1 1 -5 -4 -15 5 -16 24 -4 11 6 10 10 -5 16
-10 5 -24 7 -30 6 -20 -3 -63 30 -56 43 4 7 1 7 -8 -1 -12 -10 -18 -10 -28 0
-7 6 -12 8 -11 2z m40 -66 c0 -11 -53 6 -57 18 -3 9 4 9 26 0 17 -6 31 -15 31
-18z m-35 -19 c-3 -5 -12 -10 -18 -10 -7 0 -6 4 3 10 19 12 23 12 15 0z"/>
<path d="M0 505 c0 -8 5 -15 10 -15 6 0 10 7 10 15 0 8 -4 15 -10 15 -5 0 -10
-7 -10 -15z"/>
<path d="M250 470 c-13 -32 -5 -90 14 -90 7 0 10 13 8 40 l-4 40 45 0 c31 0
47 5 51 15 4 12 0 15 -22 12 -15 -2 -39 -1 -54 4 -23 6 -28 3 -38 -21z"/>
<path d="M615 480 c3 -5 8 -10 11 -10 2 0 4 5 4 10 0 6 -5 10 -11 10 -5 0 -7
-4 -4 -10z"/>
<path d="M700 470 c0 -5 9 -19 20 -30 12 -12 18 -25 15 -30 -4 -6 -1 -10 4
-10 6 0 11 11 11 25 0 15 -6 25 -14 25 -8 0 -17 4 -21 9 -3 6 4 8 15 6 11 -2
20 0 20 6 0 5 -11 9 -25 9 -14 0 -25 -4 -25 -10z"/>
<path d="M344 435 c-16 -14 -22 -24 -14 -21 45 13 71 16 65 6 -3 -5 -1 -10 4
-10 19 0 12 22 -9 27 -11 3 -17 9 -14 14 9 16 -2 10 -32 -16z"/>
<path d="M607 444 c-8 -9 21 -36 34 -32 6 2 2 11 -9 21 -10 9 -21 14 -25 11z"/>
<path d="M416 411 c-4 -7 -14 -10 -22 -7 -7 3 -28 -1 -46 -9 -18 -8 -27 -14
-20 -15 20 0 5 -18 -36 -41 -20 -11 -30 -18 -21 -15 13 3 15 0 12 -15 -3 -11
-14 -19 -26 -19 -11 0 -17 -3 -14 -7 4 -3 -2 -13 -14 -21 -17 -12 -18 -16 -7
-30 11 -13 10 -14 -8 -4 -18 9 -25 7 -44 -13 l-23 -25 23 -25 c19 -21 30 -24
55 -20 16 4 39 18 51 31 11 13 37 33 57 44 l37 20 0 -25 c0 -22 -4 -25 -36
-25 -33 0 -36 -2 -30 -24 5 -20 1 -26 -22 -34 l-27 -10 28 -7 c27 -7 33 -16
21 -28 -4 -3 -7 -24 -8 -47 l-2 -40 38 0 c41 0 59 20 40 43 -7 8 -6 16 4 25
12 11 14 8 16 -15 0 -15 1 -34 1 -40 -1 -10 31 -13 126 -13 93 0 122 3 111 11
-12 9 -11 9 5 3 11 -4 38 -9 60 -12 35 -4 38 -3 26 11 -7 9 -22 19 -33 23 -18
5 -15 9 21 31 25 15 41 31 41 44 0 17 -5 15 -47 -15 -68 -48 -108 -59 -141
-41 -31 17 -25 19 12 5 17 -6 26 -6 26 0 0 6 12 10 28 10 19 0 23 3 14 9 -11
6 -8 10 10 15 30 8 94 63 84 73 -4 4 -25 -3 -47 -15 -29 -17 -44 -20 -57 -13
-14 9 -13 10 10 11 49 0 41 25 -29 97 -18 18 -33 41 -33 51 0 21 -62 97 -91
112 -13 7 -25 7 -38 0 -14 -7 -21 -6 -23 2 -3 9 -6 9 -12 -1z m-56 -250 c0 -6
-9 -9 -19 -8 -11 0 -17 5 -15 9 7 11 34 10 34 -1z m243 -38 c-7 -2 -19 -2 -25
0 -7 3 -2 5 12 5 14 0 19 -2 13 -5z"/>
<path d="M741 374 c0 -11 3 -14 6 -6 3 7 2 16 -1 19 -3 4 -6 -2 -5 -13z"/>
<path d="M30 367 c0 -9 -6 -14 -13 -11 -14 5 -21 -32 -8 -41 11 -6 36 53 27
62 -3 3 -6 -1 -6 -10z"/>
<path d="M126 349 c3 -5 12 -9 21 -9 19 0 9 13 -12 16 -8 1 -13 -2 -9 -7z"/>
<path d="M0 276 c0 -19 9 -27 48 -41 26 -10 57 -25 70 -33 12 -8 22 -13 23
-11 0 2 2 16 3 31 2 30 -21 47 -30 23 -4 -8 -10 -12 -16 -9 -5 3 -7 13 -4 21
9 21 -22 42 -61 43 -28 0 -33 -4 -33 -24z m77 -12 c-3 -3 -12 -4 -19 -1 -8 3
-5 6 6 6 11 1 17 -2 13 -5z"/>
<path d="M170 255 c-7 -9 -11 -17 -9 -20 3 -2 10 5 17 15 14 24 10 26 -8 5z"/>
<path d="M0 230 c0 -5 5 -10 10 -10 6 0 10 5 10 10 0 6 -4 10 -10 10 -5 0 -10
-4 -10 -10z"/>
<path d="M50 198 c0 -6 3 -8 7 -5 3 4 11 2 18 -3 8 -7 12 -6 12 3 0 7 -9 14
-19 14 -10 1 -18 -3 -18 -9z"/>
<path d="M96 114 c-6 -15 -75 -36 -89 -27 -5 3 -7 0 -5 -8 3 -8 11 -13 19 -12
38 6 143 41 146 49 5 14 -66 12 -71 -2z"/>
<path d="M260 40 c-6 -11 -8 -20 -6 -20 3 0 10 9 16 20 6 11 8 20 6 20 -3 0
-10 -9 -16 -20z"/>
<path d="M725 50 c-8 -13 4 -32 16 -25 12 8 12 35 0 35 -6 0 -13 -4 -16 -10z"/>
</g>
</svg>
